
<!-- Generator: visioncortex VTracer 0.6.4 -->
<svg version="1.1" xmlns="http://www.w3.org/2000/svg" viewBox="0 0 1380 404" preserveAspectRatio="xMidYMid meet">
<path d="M0 0 C3.825 1.072 6.507 0.075 10.238 -1.012 C12.648 -1.258 12.648 -1.258 14.465 -0.035 C15.041 0.572 15.617 1.179 16.211 1.805 C21.045 6.426 26.609 8.994 32.648 11.742 C31.658 15.372 30.668 19.002 29.648 22.742 C32.288 22.742 34.928 22.742 37.648 22.742 C39.405 27.243 39.927 30.916 39.648 35.742 C39.318 36.402 38.988 37.062 38.648 37.742 C38.971 40.095 38.971 40.095 39.586 42.68 C40.214 45.505 40.648 47.836 40.648 50.742 C41.638 50.412 42.628 50.082 43.648 49.742 C45.71 49.673 47.773 49.658 49.836 49.68 C51.466 49.693 51.466 49.693 53.129 49.707 C53.96 49.719 54.792 49.73 55.648 49.742 C56.703 51.602 56.703 51.602 57.648 53.742 C56.773 55.992 56.773 55.992 55.648 57.742 C56.308 57.412 56.968 57.082 57.648 56.742 C73.592 54.55 89.207 53.595 104.648 58.742 C104.978 60.392 105.308 62.042 105.648 63.742 C100.384 68.768 100.384 68.768 95.723 68.699 C92.644 68.189 89.666 67.536 86.648 66.742 C85.514 66.453 84.38 66.165 83.211 65.867 C80.648 64.742 80.648 64.742 78.211 62.555 C75.687 60.399 75.687 60.399 72.086 60.742 C68.444 61.802 66.997 62.83 64.648 65.742 C64.318 65.412 63.988 65.082 63.648 64.742 C57.318 65.239 51.205 66.645 45.016 68.023 C36.162 69.913 36.162 69.913 32.648 68.742 C32.483 69.588 32.318 70.433 32.148 71.305 C29.919 76.414 25.647 80.493 20.445 82.66 C18.434 83.589 18.434 83.589 18.094 85.809 C17.988 86.632 17.882 87.456 17.773 88.305 C16.568 93.156 14.543 94.871 10.488 97.416 C9.191 98.168 7.883 98.899 6.563 99.61 C2.679 101.699 2.679 101.699 0.719 105.504 C0.696 106.243 0.672 106.981 0.648 107.742 C1.886 108.113 3.123 108.485 4.398 108.867 C8.428 110.227 12.291 111.827 16.148 113.617 C17.169 114.089 18.19 114.561 19.242 115.047 C21.648 116.742 21.648 116.742 22.492 119.438 C22.544 120.198 22.595 120.959 22.648 121.742 C24.126 121.471 24.126 121.471 25.633 121.195 C29.834 120.599 33.71 120.945 37.898 121.492 C38.958 121.604 38.958 121.604 40.039 121.719 C43.066 122.097 45.212 122.395 47.633 124.32 C47.968 124.79 48.303 125.259 48.648 125.742 C48.978 125.082 49.308 124.422 49.648 123.742 C58.888 123.742 68.128 123.742 77.648 123.742 C78.308 125.062 78.968 126.382 79.648 127.742 C80.721 127.206 81.793 126.67 82.898 126.117 C92.777 122.508 104.663 127.862 113.85 131.867 C117.911 133.843 121.568 136.438 124.648 139.742 C124.978 140.732 125.308 141.722 125.648 142.742 C125.318 143.402 124.988 144.062 124.648 144.742 C125.284 144.983 125.919 145.224 126.574 145.473 C128.648 146.742 128.648 146.742 129.441 148.73 C129.572 149.497 129.702 150.264 129.836 151.055 C129.974 151.814 130.112 152.573 130.254 153.355 C130.384 154.143 130.514 154.931 130.648 155.742 C130.826 156.522 131.004 157.302 131.188 158.105 C132.546 165.879 132.41 174.329 129.648 181.742 C129.431 182.446 129.213 183.15 128.988 183.875 C127.567 188.456 125.832 192.619 123.516 196.82 C122.539 198.747 122.539 198.747 122.32 201.043 C121.382 204.813 119.284 207.594 117.023 210.68 C116.573 211.303 116.123 211.926 115.66 212.568 C112.396 216.982 108.988 220.358 104.648 223.742 C103.947 224.691 103.246 225.64 102.523 226.617 C101.905 227.318 101.286 228.02 100.648 228.742 C99.411 228.711 99.411 228.711 98.148 228.68 C96.911 228.711 96.911 228.711 95.648 228.742 C95.088 229.65 94.527 230.557 93.949 231.492 C91.255 235.298 88.474 236.932 84.336 238.805 C83.605 239.141 82.873 239.478 82.12 239.824 C66.01 246.799 46.491 250.263 29.051 247.898 C26.399 247.726 24.24 248.205 21.648 248.742 C19.307 248.473 16.97 248.152 14.648 247.742 C17.27 249.896 19.292 251.143 22.648 251.742 C22.648 252.732 22.648 253.722 22.648 254.742 C11.512 254.551 -0.86 253.07 -10.352 246.742 C-16.561 246.742 -21.305 250.527 -26.352 253.742 C-27.217 254.219 -28.081 254.696 -28.973 255.188 C-31.44 256.598 -31.44 256.598 -32.895 258.871 C-34.352 260.742 -34.352 260.742 -36.34 261.395 C-37.49 261.536 -37.49 261.536 -38.664 261.68 C-43.011 262.359 -46.562 263.636 -50.602 265.367 C-57.002 267.728 -62.858 268.289 -69.664 268.367 C-70.583 268.39 -71.502 268.413 -72.448 268.436 C-78.538 268.369 -82.219 266.996 -87.362 263.802 C-90.179 262.302 -92.094 262.575 -95.164 263.242 C-102.279 264.213 -107.097 261.951 -113.352 258.742 C-114.407 258.274 -114.407 258.274 -115.484 257.797 C-120.014 255.62 -121.657 252.869 -123.969 248.652 C-125.595 246.405 -126.903 245.849 -129.414 244.742 C-132.555 242.971 -133.29 241.898 -134.648 238.477 C-135.605 235.021 -136.304 231.524 -136.941 227.998 C-137.353 225.733 -137.816 223.483 -138.289 221.23 C-141.186 206.951 -141.186 206.951 -139.352 199.742 C-139.125 198.786 -138.898 197.829 -138.664 196.844 C-136.926 190.434 -134.489 184.603 -131.414 178.742 C-131.09 178.119 -130.767 177.497 -130.433 176.855 C-128.242 172.846 -125.817 169.721 -122.352 166.742 C-119.539 166.43 -119.539 166.43 -117.352 166.742 C-115.999 163.812 -115.999 163.812 -117.414 161.367 C-118.352 158.742 -118.352 158.742 -117.723 156.441 C-116.048 153.145 -113.863 150.6 -111.352 147.93 C-110.861 147.404 -110.37 146.879 -109.865 146.337 C-102.375 138.464 -93.487 130.907 -83.352 126.742 C-80.349 126.757 -79.059 127.327 -76.352 128.742 C-76.434 127.996 -76.517 127.249 -76.602 126.48 C-76.352 123.742 -76.352 123.742 -74.602 121.723 C-73.488 120.835 -73.488 120.835 -72.352 119.93 C-71.609 119.325 -70.867 118.721 -70.102 118.098 C-69.524 117.65 -68.947 117.203 -68.352 116.742 C-69.113 116.52 -69.875 116.299 -70.66 116.07 C-78.866 113.243 -82.615 109.707 -87.219 102.387 C-89.719 99.287 -91.529 98.63 -95.352 97.742 C-95.248 96.463 -95.145 95.185 -95.039 93.867 C-95 89.757 -95.894 87.302 -97.914 83.742 C-100.367 79.314 -100.717 76.417 -99.941 71.457 C-99.352 69.742 -99.352 69.742 -97.352 68.742 C-95.352 68.702 -93.351 68.699 -91.352 68.742 C-91.017 66.411 -91.017 66.411 -91.352 63.742 C-93.247 61.428 -93.247 61.428 -95.352 59.742 C-91.096 47.511 -79.35 35.87 -69.633 27.715 C-67.831 26.156 -66.103 24.572 -64.383 22.926 C-47.039 6.364 -24.264 -10.081 0 0 Z M-25.352 20.742 C-25.743 21.382 -26.135 22.021 -26.539 22.68 C-28.962 25.437 -30.843 25.037 -34.352 25.285 C-42.804 26.573 -53.924 29.715 -60.07 35.91 C-62.838 39.867 -64.538 44.294 -66.352 48.742 C-66.929 49.794 -67.507 50.846 -68.102 51.93 C-69.765 55.672 -70.924 58.668 -70.352 62.742 C-68.355 67.285 -65.891 71.485 -63.352 75.742 C-62.669 77.068 -61.995 78.397 -61.352 79.742 C-63.27 79.897 -63.27 79.897 -65.227 80.055 C-70.418 80.632 -75.513 81.736 -80.352 83.742 C-80.847 84.732 -80.847 84.732 -81.352 85.742 C-70.011 89.286 -70.011 89.286 -58.352 90.742 C-55.678 88.803 -55.678 88.803 -53.352 86.742 C-50.852 86.867 -50.852 86.867 -48.352 87.742 C-47.021 88.113 -47.021 88.113 -45.664 88.492 C-43.352 89.742 -43.352 89.742 -42.039 92.367 C-41.812 93.151 -41.585 93.935 -41.352 94.742 C-39.743 94.34 -39.743 94.34 -38.102 93.93 C-36.864 93.868 -35.627 93.806 -34.352 93.742 C-32.039 96.18 -32.039 96.18 -30.352 98.742 C-29.692 98.742 -29.032 98.742 -28.352 98.742 C-28.109 98.162 -27.867 97.582 -27.617 96.984 C-20.458 80.299 -7.316 70.265 7.648 60.742 C8.638 60.412 9.628 60.082 10.648 59.742 C11.89 55.182 12.585 51.424 10.215 47.168 C8.13 44.579 5.926 42.163 3.648 39.742 C2.693 38.545 2.693 38.545 1.719 37.324 C-2.516 32.079 -6.774 29.02 -12.801 26.027 C-14.966 24.936 -16.835 23.787 -18.789 22.367 C-21.409 20.385 -21.409 20.385 -25.352 20.742 Z M-51.352 125.742 C-51.682 127.062 -52.012 128.382 -52.352 129.742 C-52.902 129.539 -53.452 129.336 -54.019 129.127 C-58.865 128.328 -63.649 131.382 -68.039 133.242 C-69.09 133.665 -70.142 134.088 -71.225 134.523 C-78.135 137.413 -83.71 140.829 -89.352 145.742 C-90.305 146.55 -91.259 147.359 -92.242 148.191 C-97.599 153.273 -100.789 157.792 -103.219 164.785 C-104.352 167.742 -104.352 167.742 -106.406 171.125 C-108.569 174.804 -109.144 178.169 -109.602 182.43 C-109.679 183.122 -109.756 183.815 -109.836 184.529 C-110.376 189.763 -110.465 194.932 -110.227 200.191 C-110.368 203.07 -111.288 205.086 -112.352 207.742 C-111.45 210.897 -110.626 213.016 -107.68 214.695 C-106.321 215.293 -104.962 215.888 -103.602 216.48 C-99.929 218.54 -97.33 221.617 -94.426 224.625 C-89.185 229.975 -84.236 231.48 -77.059 232.934 C-74.216 233.783 -73.306 234.622 -71.352 236.742 C-70.547 236.68 -69.743 236.618 -68.914 236.555 C-67.646 236.648 -67.646 236.648 -66.352 236.742 C-65.423 238.196 -65.423 238.196 -64.477 239.68 C-62.591 243.128 -62.591 243.128 -58.602 243.617 C-57.529 243.658 -56.457 243.7 -55.352 243.742 C-55.015 243.072 -54.679 242.402 -54.332 241.711 C-52.352 239.742 -52.352 239.742 -48.84 239.711 C-47.446 239.874 -46.054 240.052 -44.664 240.242 C-38.002 240.942 -33.937 240.582 -28.352 236.742 C-28.352 235.752 -28.352 234.762 -28.352 233.742 C-30.445 231.808 -30.445 231.808 -33.102 229.93 C-37.13 226.828 -39.707 224.119 -42.352 219.742 C-43.636 218.401 -44.928 217.069 -46.227 215.742 C-48.047 213.68 -48.047 213.68 -49.352 211.742 C-48.961 207.058 -45.96 203.332 -43.375 199.477 C-42.182 197.791 -42.182 197.791 -42.352 195.742 C-40.477 196.055 -40.477 196.055 -38.352 196.742 C-36.171 200.013 -36.059 201.356 -35.852 205.18 C-35.649 208.904 -35.249 211.506 -33.352 214.742 C-32.032 214.742 -30.712 214.742 -29.352 214.742 C-29.187 215.773 -29.022 216.805 -28.852 217.867 C-27.48 222.892 -23.558 225.071 -19.352 227.742 C-19.352 226.752 -19.352 225.762 -19.352 224.742 C-20.156 223.958 -20.96 223.175 -21.789 222.367 C-24.45 219.641 -25.034 218.445 -25.352 214.742 C-19.003 214.234 -15.511 214.638 -10.352 218.742 C-8.691 219.753 -7.027 220.757 -5.352 221.742 C3.999 217.191 6.868 207.771 10.648 198.742 C11.762 198.763 12.876 198.783 14.023 198.805 C17.481 199.006 17.481 199.006 19.648 197.742 C20.301 195.718 20.301 195.718 20.648 193.742 C17.161 190.495 17.161 190.495 12.648 189.742 C13.143 188.752 13.143 188.752 13.648 187.742 C13.872 181.05 13.39 174.452 12.867 167.781 C12.648 164.742 12.648 164.742 12.648 161.742 C11.173 160.622 11.173 160.622 9.211 159.68 C3.663 156.391 -0.703 152.057 -4.352 146.742 C-4.895 144.457 -4.895 144.457 -4.977 142.367 C-5.1 141.171 -5.224 139.975 -5.352 138.742 C-9.692 135.288 -12.57 134.637 -18.094 134.215 C-23.578 133.067 -29.403 129.691 -33.352 125.742 C-35.288 125.466 -35.288 125.466 -37.484 125.547 C-38.29 125.553 -39.096 125.56 -39.926 125.566 C-41.188 125.592 -41.188 125.592 -42.477 125.617 C-43.326 125.626 -44.176 125.635 -45.051 125.645 C-47.151 125.668 -49.251 125.704 -51.352 125.742 Z M36.648 131.742 C36.648 132.402 36.648 133.062 36.648 133.742 C37.308 133.742 37.968 133.742 38.648 133.742 C38.648 133.082 38.648 132.422 38.648 131.742 C37.988 131.742 37.328 131.742 36.648 131.742 Z M59.648 137.742 C59.318 138.072 58.988 138.402 58.648 138.742 C57.134 138.974 55.611 139.154 54.086 139.305 C53.26 139.388 52.433 139.472 51.582 139.559 C50.625 139.649 50.625 139.649 49.648 139.742 C49.455 140.452 49.262 141.163 49.062 141.895 C48.802 142.814 48.542 143.733 48.273 144.68 C47.891 146.054 47.891 146.054 47.5 147.457 C46.648 149.742 46.648 149.742 44.648 150.742 C46.041 151.608 46.041 151.608 47.461 152.492 C50.265 154.472 51.948 155.814 53.648 158.742 C53.648 159.732 53.648 160.722 53.648 161.742 C51.338 162.072 49.028 162.402 46.648 162.742 C46.608 163.893 46.569 165.044 46.527 166.23 C45.626 182.062 40.604 197.033 29.242 208.555 C25.557 211.663 21.618 214.352 17.622 217.043 C12.649 220.481 9.402 224.313 6.648 229.742 C9.288 230.072 11.928 230.402 14.648 230.742 C14.648 231.732 14.648 232.722 14.648 233.742 C19.795 236.909 23.807 237.093 29.648 236.742 C29.648 238.062 29.648 239.382 29.648 240.742 C37.898 240.742 46.148 240.742 54.648 240.742 C55.143 239.257 55.143 239.257 55.648 237.742 C56.602 237.804 57.556 237.866 58.539 237.93 C63.473 237.92 67.79 236.382 72.398 234.742 C73.281 234.43 74.163 234.117 75.072 233.795 C84.483 230.297 92.618 225.755 97.648 216.742 C98.103 216.337 98.559 215.933 99.027 215.516 C101.824 212.457 103.267 208.5 104.955 204.748 C106.29 201.927 107.21 200.025 109.871 198.309 C110.751 198.028 110.751 198.028 111.648 197.742 C111.648 197.082 111.648 196.422 111.648 195.742 C110.988 195.742 110.328 195.742 109.648 195.742 C110.864 188.605 112.362 181.604 114.16 174.59 C114.647 171.75 114.605 170.403 113.648 167.742 C113.4 167.045 113.151 166.347 112.895 165.629 C112.628 164.903 112.361 164.177 112.086 163.43 C110.685 159.323 110.373 156.055 110.648 151.742 C113.948 151.742 117.248 151.742 120.648 151.742 C120.153 150.752 120.153 150.752 119.648 149.742 C118.211 149.715 116.773 149.696 115.336 149.68 C114.535 149.668 113.735 149.656 112.91 149.645 C110.48 149.646 110.48 149.646 107.648 150.742 C105.26 149.736 103.011 148.672 100.711 147.492 C88.368 141.483 76.358 139.742 62.648 139.742 C62.153 138.752 62.153 138.752 61.648 137.742 C60.988 137.742 60.328 137.742 59.648 137.742 Z " fill="#9CAB81" transform="translate(230.3515625,60.2578125)"/>
<path d="M0 0 C1.078 0.018 2.155 0.036 3.266 0.055 C4.495 0.089 4.495 0.089 5.75 0.125 C6.805 1.984 6.805 1.984 7.75 4.125 C6.875 6.375 6.875 6.375 5.75 8.125 C6.41 7.795 7.07 7.465 7.75 7.125 C23.694 4.933 39.308 3.978 54.75 9.125 C55.08 10.775 55.41 12.425 55.75 14.125 C50.485 19.15 50.485 19.15 45.824 19.082 C42.746 18.572 39.767 17.919 36.75 17.125 C35.616 16.836 34.481 16.547 33.312 16.25 C30.75 15.125 30.75 15.125 28.312 12.938 C25.788 10.782 25.788 10.782 22.188 11.125 C18.545 12.185 17.099 13.212 14.75 16.125 C14.255 15.63 14.255 15.63 13.75 15.125 C7.42 15.621 1.307 17.028 -4.883 18.406 C-13.737 20.296 -13.737 20.296 -17.25 19.125 C-17.415 19.971 -17.58 20.816 -17.75 21.688 C-19.98 26.797 -24.251 30.875 -29.453 33.043 C-31.465 33.971 -31.465 33.971 -31.805 36.191 C-31.91 37.015 -32.016 37.839 -32.125 38.688 C-33.331 43.538 -35.355 45.253 -39.411 47.799 C-40.707 48.55 -42.016 49.282 -43.335 49.992 C-47.22 52.081 -47.22 52.081 -49.18 55.887 C-49.203 56.625 -49.226 57.364 -49.25 58.125 C-48.012 58.496 -46.775 58.868 -45.5 59.25 C-41.471 60.61 -37.608 62.209 -33.75 64 C-32.729 64.472 -31.708 64.944 -30.656 65.43 C-28.25 67.125 -28.25 67.125 -27.406 69.82 C-27.355 70.581 -27.303 71.341 -27.25 72.125 C-26.265 71.945 -25.28 71.764 -24.266 71.578 C-20.064 70.982 -16.189 71.328 -12 71.875 C-11.294 71.95 -10.587 72.025 -9.859 72.102 C-6.832 72.48 -4.687 72.778 -2.266 74.703 C-1.93 75.172 -1.595 75.642 -1.25 76.125 C-0.92 75.465 -0.59 74.805 -0.25 74.125 C8.99 74.125 18.23 74.125 27.75 74.125 C28.41 75.445 29.07 76.765 29.75 78.125 C30.822 77.589 31.895 77.053 33 76.5 C42.879 72.89 54.764 78.245 63.951 82.25 C68.012 84.225 71.67 86.821 74.75 90.125 C75.08 91.115 75.41 92.105 75.75 93.125 C75.42 93.785 75.09 94.445 74.75 95.125 C75.386 95.366 76.021 95.607 76.676 95.855 C78.75 97.125 78.75 97.125 79.543 99.113 C79.673 99.88 79.803 100.647 79.938 101.438 C80.075 102.197 80.213 102.956 80.355 103.738 C80.551 104.92 80.551 104.92 80.75 106.125 C81.017 107.295 81.017 107.295 81.289 108.488 C82.648 116.262 82.512 124.712 79.75 132.125 C79.532 132.829 79.314 133.533 79.09 134.258 C77.669 138.839 75.933 143.002 73.617 147.203 C72.64 149.13 72.64 149.13 72.422 151.426 C71.484 155.195 69.386 157.977 67.125 161.062 C66.675 161.686 66.225 162.309 65.761 162.951 C62.498 167.365 59.089 170.74 54.75 174.125 C54.049 175.074 53.347 176.023 52.625 177 C52.006 177.701 51.387 178.403 50.75 179.125 C49.512 179.094 49.512 179.094 48.25 179.062 C47.012 179.093 47.012 179.093 45.75 179.125 C45.189 180.033 44.629 180.94 44.051 181.875 C41.356 185.681 38.576 187.315 34.438 189.188 C33.706 189.524 32.975 189.861 32.221 190.207 C16.111 197.182 -3.407 200.646 -20.848 198.281 C-23.499 198.109 -25.658 198.587 -28.25 199.125 C-30.592 198.856 -32.929 198.535 -35.25 198.125 C-32.628 200.279 -30.606 201.526 -27.25 202.125 C-27.25 203.115 -27.25 204.105 -27.25 205.125 C-35.176 204.989 -42.274 204.13 -49.812 201.75 C-50.478 201.541 -51.144 201.332 -51.83 201.116 C-55.598 199.863 -59.059 198.514 -62.25 196.125 C-62.25 195.135 -62.25 194.145 -62.25 193.125 C-62.969 192.848 -63.689 192.571 -64.43 192.285 C-75.734 187.635 -86.884 180.811 -93.25 170.125 C-94.534 168.784 -95.826 167.451 -97.125 166.125 C-100.277 162.533 -100.277 162.533 -100.062 159.25 C-99.464 158.219 -98.866 157.188 -98.25 156.125 C-97.756 155.269 -97.263 154.413 -96.754 153.531 C-95.292 151.035 -93.789 148.574 -92.25 146.125 C-89.875 146.438 -89.875 146.438 -87.25 147.125 C-85.073 150.39 -84.929 151.803 -84.688 155.625 C-84.482 158.748 -84.244 161.142 -83.25 164.125 C-82.608 164.273 -81.966 164.421 -81.305 164.574 C-79.25 165.125 -79.25 165.125 -78.195 166.832 C-77.925 167.527 -77.654 168.222 -77.375 168.938 C-75.427 173.278 -73.385 174.869 -69.25 177.125 C-69.683 176.678 -70.116 176.23 -70.562 175.77 C-75.168 170.77 -75.168 170.77 -75.625 167.188 C-75.501 166.507 -75.377 165.826 -75.25 165.125 C-72.14 163.57 -69.687 163.839 -66.25 164.125 C-63.125 165.938 -63.125 165.938 -60.25 168.125 C-58.59 169.136 -56.925 170.14 -55.25 171.125 C-54.301 170.3 -53.352 169.475 -52.375 168.625 C-49.5 166.125 -49.5 166.125 -47.25 166.125 C-47.091 165.58 -46.933 165.034 -46.77 164.473 C-44.941 158.564 -42.421 153.426 -39.25 148.125 C-36.28 148.125 -33.31 148.125 -30.25 148.125 C-30.281 145.709 -30.281 145.709 -31.25 143.125 C-34.217 141.266 -34.217 141.266 -37.25 140.125 C-37.238 139.493 -37.227 138.862 -37.215 138.211 C-37.147 131.457 -37.526 124.821 -38.129 118.094 C-38.25 115.125 -38.25 115.125 -37.25 112.125 C-38.109 111.921 -38.967 111.718 -39.852 111.508 C-44.154 109.757 -46.521 107.372 -49.625 104 C-50.17 103.456 -50.716 102.912 -51.277 102.352 C-54.23 99.184 -55.596 97.107 -55.602 92.695 C-55.486 91.517 -55.37 90.339 -55.25 89.125 C-55.972 88.898 -56.694 88.671 -57.438 88.438 C-60.862 86.839 -62.67 84.889 -65.25 82.125 C-66.089 81.332 -66.089 81.332 -66.945 80.523 C-74.999 72.888 -78.271 66.152 -79.148 55.027 C-79.443 43.717 -73.635 35.819 -66.066 27.816 C-54.436 16.813 -42.918 9.366 -27.25 6.125 C-25.726 5.616 -25.726 5.616 -24.172 5.098 C-20.437 3.854 -16.715 3.296 -12.836 2.688 C-10.277 2.257 -10.277 2.257 -8.305 1.07 C-5.471 -0.233 -3.099 -0.067 0 0 Z M-13.25 82.125 C-13.25 82.785 -13.25 83.445 -13.25 84.125 C-12.59 84.125 -11.93 84.125 -11.25 84.125 C-11.25 83.465 -11.25 82.805 -11.25 82.125 C-11.91 82.125 -12.57 82.125 -13.25 82.125 Z M9.75 88.125 C9.42 88.455 9.09 88.785 8.75 89.125 C7.235 89.357 5.712 89.537 4.188 89.688 C3.361 89.771 2.535 89.855 1.684 89.941 C0.726 90.032 0.726 90.032 -0.25 90.125 C-0.443 90.835 -0.637 91.546 -0.836 92.277 C-1.096 93.196 -1.357 94.116 -1.625 95.062 C-2.008 96.437 -2.008 96.437 -2.398 97.84 C-3.25 100.125 -3.25 100.125 -5.25 101.125 C-3.858 101.991 -3.858 101.991 -2.438 102.875 C0.367 104.855 2.05 106.197 3.75 109.125 C3.75 110.115 3.75 111.105 3.75 112.125 C1.44 112.455 -0.87 112.785 -3.25 113.125 C-3.29 114.276 -3.33 115.427 -3.371 116.613 C-4.272 132.445 -9.294 147.416 -20.656 158.938 C-24.341 162.045 -28.28 164.735 -32.277 167.426 C-37.249 170.864 -40.496 174.696 -43.25 180.125 C-40.61 180.455 -37.97 180.785 -35.25 181.125 C-35.25 182.115 -35.25 183.105 -35.25 184.125 C-30.103 187.292 -26.092 187.476 -20.25 187.125 C-20.25 188.445 -20.25 189.765 -20.25 191.125 C-12 191.125 -3.75 191.125 4.75 191.125 C5.245 189.64 5.245 189.64 5.75 188.125 C6.704 188.187 7.658 188.249 8.641 188.312 C13.574 188.303 17.891 186.764 22.5 185.125 C23.382 184.812 24.265 184.5 25.174 184.178 C34.584 180.68 42.72 176.138 47.75 167.125 C48.205 166.72 48.66 166.315 49.129 165.898 C51.925 162.839 53.368 158.883 55.057 155.131 C56.391 152.31 57.311 150.408 59.973 148.691 C60.852 148.411 60.852 148.411 61.75 148.125 C61.75 147.465 61.75 146.805 61.75 146.125 C61.09 146.125 60.43 146.125 59.75 146.125 C60.966 138.988 62.463 131.987 64.262 124.973 C64.749 122.133 64.707 120.786 63.75 118.125 C63.501 117.428 63.252 116.73 62.996 116.012 C62.729 115.286 62.462 114.56 62.188 113.812 C60.787 109.706 60.475 106.438 60.75 102.125 C64.05 102.125 67.35 102.125 70.75 102.125 C70.255 101.135 70.255 101.135 69.75 100.125 C68.313 100.098 66.875 100.079 65.438 100.062 C64.637 100.051 63.836 100.039 63.012 100.027 C60.581 100.028 60.581 100.028 57.75 101.125 C55.361 100.119 53.113 99.055 50.812 97.875 C38.469 91.866 26.459 90.125 12.75 90.125 C12.255 89.135 12.255 89.135 11.75 88.125 C11.09 88.125 10.43 88.125 9.75 88.125 Z " fill="#9CAB81" transform="translate(280.25,109.875)"/>
<path d="M0 0 C0.398 1.845 0.398 1.845 0.805 3.727 C1.161 5.359 1.518 6.992 1.875 8.625 C2.136 9.837 2.136 9.837 2.402 11.074 C3.372 15.492 4.547 19.711 6 24 C6.312 27.25 6.312 27.25 6 30 C5.01 30.66 4.02 31.32 3 32 C3.928 32.412 4.856 32.825 5.812 33.25 C9.068 35.037 10.301 35.772 12 39 C12.34 40.473 12.65 41.953 12.938 43.438 C13.757 47.631 15.224 49.719 18 53 C18.589 54.365 19.13 55.752 19.629 57.152 C20.019 58.233 20.019 58.233 20.416 59.336 C20.609 59.885 20.802 60.434 21 61 C32.555 48.846 32.555 48.846 43.312 36 C43.869 35.34 44.426 34.68 45 34 C45.66 34 46.32 34 47 34 C47.223 33.456 47.446 32.912 47.676 32.352 C49.412 29.269 51.753 26.906 54.188 24.375 C58.463 19.85 62.126 15.239 65.465 9.961 C67.173 7.779 68.417 6.952 71 6 C76.357 5.679 76.357 5.679 79 7 C79 9.31 79 11.62 79 14 C78.092 14.371 77.185 14.743 76.25 15.125 C72.543 17.264 71.229 19.418 69 23 C68.34 23 67.68 23 67 23 C66.734 23.572 66.469 24.145 66.195 24.734 C64.943 27.108 63.506 29.122 61.875 31.25 C61.336 31.956 60.797 32.663 60.242 33.391 C59.832 33.922 59.422 34.453 59 35 C59.811 34.567 60.622 34.134 61.457 33.688 C68.629 30.081 74.884 27.462 83 29 C85 31 85 31 85.344 33.324 C84.904 36.747 83.71 38.182 81.5 40.812 C80.404 42.118 80.404 42.118 79.285 43.449 C76.6 46.447 73.803 49.286 70.914 52.086 C69.098 53.902 67.458 55.78 65.812 57.75 C61.227 63.074 55.959 67.687 50.761 72.396 C48.967 74.03 47.187 75.678 45.41 77.332 C44.828 77.873 44.246 78.414 43.647 78.972 C42.535 80.006 41.424 81.042 40.314 82.079 C37.647 84.552 34.964 86.889 32 89 C32.949 88.835 33.898 88.67 34.875 88.5 C39.576 87.815 44.26 87.914 49 88 C47.553 91.509 47.163 91.922 43.5 93.688 C42.345 94.121 41.19 94.554 40 95 C39.01 95.495 39.01 95.495 38 96 C38.273 96.818 38.273 96.818 38.551 97.652 C38.928 98.783 38.928 98.783 39.312 99.938 C39.594 100.77 39.875 101.603 40.164 102.461 C40.664 103.979 41.145 105.503 41.586 107.039 C43.553 113.654 46.742 119.647 49.859 125.773 C51.961 129.907 54.007 134.063 56 138.25 C56.303 138.87 56.605 139.489 56.917 140.127 C58.475 143.425 59 145.258 59 149 C59.639 149.309 60.279 149.619 60.938 149.938 C63 151 63 151 64 152 C64.125 154.5 64.125 154.5 64 157 C63.67 157.33 63.34 157.66 63 158 C63.743 158.454 64.485 158.908 65.25 159.375 C68.553 162.527 69.503 165.306 71.012 169.539 C71.921 171.803 72.875 173.354 74.375 175.25 C76 178 76 178 75.5 181.25 C73.8 184.367 73.206 184.746 70 186 C67.928 186.435 65.843 186.807 63.75 187.125 C62.672 187.293 61.595 187.46 60.484 187.633 C59.665 187.754 58.845 187.875 58 188 C54.855 180.764 52.109 173.602 50 166 C49.629 164.804 49.257 163.607 48.875 162.375 C47.881 158.542 47.34 154.945 47 151 C47.33 150.67 47.66 150.34 48 150 C47.237 149.794 46.474 149.587 45.688 149.375 C41.178 147.068 40.112 142.529 38.613 137.914 C38.174 136.486 37.741 135.056 37.312 133.625 C36.975 132.521 36.975 132.521 36.631 131.395 C36.083 129.598 35.541 127.799 35 126 C33.35 125.67 31.7 125.34 30 125 C29.34 126.98 28.68 128.96 28 131 C24.042 130.38 20.928 129.067 17.312 127.375 C9.135 124.193 0.546 123.806 -8 126 C-10.927 127.548 -13.023 129.091 -15.371 131.406 C-18.096 134.073 -20.866 134.157 -24.5 134.188 C-25.273 134.202 -26.047 134.216 -26.844 134.23 C-29 134 -29 134 -32 132 C-32.33 131.01 -32.66 130.02 -33 129 C-33.565 129.325 -34.129 129.65 -34.711 129.984 C-37.214 131.095 -38.903 131.268 -41.625 131.25 C-42.401 131.255 -43.177 131.26 -43.977 131.266 C-46 131 -46 131 -48 129 C-48 128.01 -48 127.02 -48 126 C-59.537 125.83 -59.537 125.83 -71 127 C-71.258 127.705 -71.516 128.41 -71.781 129.137 C-73.103 132.243 -74.697 134.96 -76.5 137.812 C-77.108 138.788 -77.717 139.764 -78.344 140.77 C-78.89 141.506 -79.437 142.242 -80 143 C-80.66 143 -81.32 143 -82 143 C-81.915 143.66 -81.83 144.32 -81.742 145 C-82.111 149.292 -84.001 152.31 -86.125 156 C-86.504 156.699 -86.883 157.397 -87.273 158.117 C-89.27 161.644 -91.118 164.306 -94.332 166.812 C-95.212 167.534 -96.093 168.256 -97 169 C-96.707 171.006 -96.374 173.007 -96 175 C-98.188 177.625 -98.188 177.625 -101 180 C-101.66 180.722 -102.32 181.444 -103 182.188 C-105.369 184.334 -106.854 185.341 -110 186 C-113.75 184.875 -113.75 184.875 -117 183 C-117.703 180.883 -117.703 180.883 -118 179 C-117.169 178.277 -117.169 178.277 -116.32 177.539 C-115.596 176.907 -114.871 176.276 -114.125 175.625 C-113.406 174.999 -112.686 174.372 -111.945 173.727 C-109.309 171.387 -108.065 170.165 -106.75 166.812 C-105.259 163.157 -103.128 160.668 -100.488 157.773 C-98.977 155.973 -97.873 154.186 -96.75 152.125 C-95 149 -95 149 -93 148 C-92.284 146.336 -91.574 144.67 -90.892 142.992 C-89.385 139.628 -87.346 136.627 -85.312 133.562 C-84.897 132.926 -84.481 132.29 -84.053 131.635 C-83.04 130.087 -82.021 128.543 -81 127 C-82.65 126.34 -84.3 125.68 -86 125 C-85.424 120.245 -83.449 117.03 -81 113 C-78.69 113.33 -76.38 113.66 -74 114 C-73.67 113.072 -73.34 112.144 -73 111.188 C-71.579 107.868 -69.757 105.236 -67.562 102.375 C-61.718 94.572 -57.16 86.007 -52.41 77.512 C-50.8 74.643 -49.16 71.793 -47.515 68.945 C-45.161 64.869 -42.853 60.805 -40.812 56.562 C-39.45 53.884 -38.311 52.042 -36.5 49.75 C-33.498 45.769 -32.291 41.311 -30.895 36.574 C-30 34 -30 34 -28 32 C-27.876 30.928 -27.753 29.855 -27.625 28.75 C-27 25 -27 25 -25 22.062 C-23.006 19.009 -22.808 18.329 -22.688 14.938 C-21.956 10.748 -21.827 10.375 -18.625 8.062 C-16.385 6.657 -14.54 5.847 -12 5 C-11.67 4.34 -11.34 3.68 -11 3 C-10.01 3 -9.02 3 -8 3 C-8 2.34 -8 1.68 -8 1 C-4.856 -0.909 -3.479 -1.045 0 0 Z M-15 28 C-15.389 28.73 -15.779 29.459 -16.18 30.211 C-18.957 35.394 -21.748 40.565 -24.621 45.695 C-25.067 46.491 -25.512 47.288 -25.971 48.108 C-26.852 49.679 -27.736 51.249 -28.623 52.818 C-30.321 55.847 -31.891 58.708 -33.105 61.969 C-33.401 62.639 -33.696 63.309 -34 64 C-35.485 64.495 -35.485 64.495 -37 65 C-37.33 65.99 -37.66 66.98 -38 68 C-40.062 69.188 -40.062 69.188 -42 70 C-41.34 70 -40.68 70 -40 70 C-41.217 72.569 -42.448 75.13 -43.688 77.688 C-44.027 78.409 -44.367 79.13 -44.717 79.873 C-46.933 84.409 -49.304 87.485 -53 91 C-53.716 92.855 -54.425 94.715 -55.043 96.605 C-56.728 100.821 -59.212 104.597 -61.574 108.461 C-63.163 110.805 -63.163 110.805 -63 113 C-61.298 113.186 -61.298 113.186 -59.562 113.375 C-58.387 113.581 -57.211 113.787 -56 114 C-55.67 114.66 -55.34 115.32 -55 116 C-43.942 117.175 -43.942 117.175 -33.461 114.688 C-31.769 112.891 -30.403 111.027 -29 109 C-27.865 107.944 -26.696 106.924 -25.5 105.938 C-21.395 102.402 -17.45 98.707 -13.5 95 C-8.415 90.234 -3.305 85.522 2 81 C2.67 80.424 3.341 79.848 4.031 79.254 C5.685 77.833 7.342 76.416 9 75 C8.711 74.169 8.422 73.337 8.125 72.48 C7.568 70.85 7.568 70.85 7 69.188 C6.629 68.109 6.257 67.03 5.875 65.918 C5 63 5 63 5 60 C4.01 60 3.02 60 2 60 C1.83 59.443 1.66 58.886 1.484 58.312 C-0.514 52.018 -3.017 46.277 -6.438 40.625 C-8.868 36.542 -10.906 32.263 -13 28 C-13.66 28 -14.32 28 -15 28 Z M35 67 C33.363 68.96 33.363 68.96 32 71 C35.122 69.691 35.122 69.691 37 67 C36.34 67 35.68 67 35 67 Z M30 71 C28.618 72.626 27.281 74.293 26 76 C29.161 74.63 29.993 74.011 32 71 C31.34 71 30.68 71 30 71 Z M14 85 C11.578 87.223 9.163 89.455 6.75 91.688 C6.068 92.313 5.386 92.939 4.684 93.584 C1.143 96.867 -2.111 100.106 -5 104 C-2.078 102.673 0.065 101.208 2.383 98.996 C2.993 98.421 3.602 97.845 4.23 97.252 C4.856 96.653 5.481 96.054 6.125 95.438 C7.376 94.247 8.628 93.058 9.883 91.871 C10.709 91.081 10.709 91.081 11.551 90.275 C13 89 13 89 15 88 C14.67 87.01 14.34 86.02 14 85 Z M18.309 107.062 C17.364 107.694 16.42 108.326 15.447 108.977 C14.454 109.644 13.461 110.312 12.438 111 C11.44 111.668 10.443 112.335 9.416 113.023 C6.943 114.68 4.471 116.339 2 118 C5.32 119.107 7.296 118.959 10.762 118.66 C11.88 118.567 12.998 118.473 14.15 118.377 C15.318 118.273 16.485 118.169 17.688 118.062 C18.866 117.963 20.045 117.863 21.26 117.76 C24.174 117.512 27.087 117.259 30 117 C28.62 111.797 27.206 108.241 24 104 C21.945 104 19.93 105.975 18.309 107.062 Z " fill="#9CAB81" transform="translate(1223,119)"/>
<path d="M0 0 C4.099 1.423 5.181 4.375 7.227 8.02 C9.117 12.195 9.961 16.345 10.52 20.875 C8.87 20.875 7.22 20.875 5.52 20.875 C5.85 21.535 6.18 22.195 6.52 22.875 C8.5 22.875 10.48 22.875 12.52 22.875 C13.93 27.021 15.324 31.143 16.457 35.375 C17.332 38.258 18.332 40.775 19.582 43.5 C22.33 49.563 22.33 49.563 22.52 52.875 C21.582 55.188 21.582 55.188 20.52 56.875 C22.5 56.875 24.48 56.875 26.52 56.875 C30.122 63.903 33.162 70.052 33.316 78.047 C33.383 78.65 33.45 79.253 33.52 79.875 C34.51 80.37 34.51 80.37 35.52 80.875 C35.664 81.494 35.808 82.113 35.957 82.75 C36.342 84.934 36.342 84.934 37.918 86.25 C40.872 89.248 42.308 93.227 44.082 97 C44.481 97.817 44.88 98.635 45.291 99.477 C47.57 104.285 49.144 108.764 50.018 114.021 C50.847 117.086 53.263 118.721 55.52 120.875 C58.579 125.72 61.048 130.906 63.574 136.043 C63.928 136.759 64.281 137.476 64.645 138.214 C65.342 139.632 66.033 141.054 66.716 142.48 C68.301 145.725 69.689 148.562 72.52 150.875 C72.748 150.086 72.976 149.297 73.211 148.484 C74.907 143.807 77.139 139.52 79.457 135.125 C79.9 134.263 80.343 133.4 80.799 132.512 C81.231 131.688 81.664 130.864 82.109 130.016 C82.5 129.268 82.89 128.521 83.293 127.751 C84.52 125.875 84.52 125.875 87.52 123.875 C87.52 122.947 87.52 122.019 87.52 121.062 C87.52 117.349 88.274 115.786 90.52 112.875 C91.51 112.545 92.5 112.215 93.52 111.875 C93.561 110.72 93.602 109.565 93.645 108.375 C94.174 103.439 95.722 99.055 97.457 94.438 C97.722 93.727 97.987 93.017 98.26 92.285 C99.4 89.342 100.264 87.131 102.52 84.875 C102.891 83.05 102.891 83.05 103.27 81.188 C104.198 76.656 105.703 72.419 107.395 68.125 C107.639 67.487 107.884 66.85 108.136 66.193 C109.368 63.133 110.63 60.738 112.711 58.164 C114.971 55.304 114.647 53.444 114.488 49.906 C114.588 43.399 119.32 38.241 122.953 33.234 C124.729 30.56 125.531 27.912 126.52 24.875 C129.02 22 129.02 22 131.52 19.875 C132.18 19.875 132.84 19.875 133.52 19.875 C133.52 19.215 133.52 18.555 133.52 17.875 C132.749 17.838 131.978 17.8 131.184 17.762 C129.679 17.663 129.679 17.663 128.145 17.562 C127.147 17.504 126.149 17.446 125.121 17.387 C124.263 17.218 123.404 17.049 122.52 16.875 C120.52 13.875 120.52 13.875 120.477 10.926 C121.52 7.875 121.52 7.875 124.469 5.793 C125.704 5.193 126.951 4.617 128.207 4.062 C129.126 3.615 129.126 3.615 130.064 3.158 C133.851 1.379 137.372 0.366 141.52 -0.125 C144.057 10.817 143.723 21.712 143.52 32.875 C142.53 33.205 141.54 33.535 140.52 33.875 C141.18 34.205 141.84 34.535 142.52 34.875 C142.19 36.195 141.86 37.515 141.52 38.875 C142.18 38.875 142.84 38.875 143.52 38.875 C143.547 41.771 143.566 44.667 143.582 47.562 C143.59 48.379 143.599 49.196 143.607 50.037 C143.624 54.12 143.55 57.892 142.52 61.875 C143.51 62.205 144.5 62.535 145.52 62.875 C146.41 75.891 146.635 88.83 146.52 101.875 C145.86 101.875 145.2 101.875 144.52 101.875 C144.52 102.865 144.52 103.855 144.52 104.875 C145.51 105.535 146.5 106.195 147.52 106.875 C148.151 108.659 148.151 108.659 148.504 110.797 C148.634 111.575 148.764 112.354 148.898 113.156 C149.021 113.971 149.143 114.786 149.27 115.625 C149.407 116.424 149.545 117.223 149.688 118.047 C150.424 122.661 150.344 126.243 149.52 130.875 C150.18 131.535 150.84 132.195 151.52 132.875 C151.934 135.695 151.934 135.695 152.145 139 C152.257 140.644 152.257 140.644 152.371 142.32 C152.42 143.163 152.469 144.006 152.52 144.875 C151.53 145.205 150.54 145.535 149.52 145.875 C149.19 146.865 148.86 147.855 148.52 148.875 C149.457 149.223 149.457 149.223 150.414 149.578 C153.189 151.287 153.408 152.501 154.207 155.625 C154.687 157.699 155.121 159.784 155.52 161.875 C155.746 163.061 155.973 164.247 156.207 165.469 C157.422 174.355 157.422 174.355 155.109 178.25 C149.204 183.885 142.41 184.999 134.52 184.875 C134.661 183.125 134.808 181.375 134.957 179.625 C135.079 178.163 135.079 178.163 135.203 176.672 C135.52 173.875 135.52 173.875 136.055 171.766 C136.679 169.552 136.679 169.552 136.52 165.875 C136.19 165.545 135.86 165.215 135.52 164.875 C135.39 161.506 135.405 158.435 136.082 155.125 C136.741 152.72 136.741 152.72 135.52 149.875 C135.172 146.363 135.054 142.837 134.895 139.312 C134.843 138.341 134.791 137.37 134.738 136.369 C134.694 135.442 134.651 134.514 134.605 133.559 C134.544 132.283 134.544 132.283 134.482 130.982 C134.52 128.875 134.52 128.875 135.52 126.875 C135.059 126.149 134.599 125.424 134.125 124.676 C132.194 121.306 132.024 118.924 131.832 115.062 C131.733 113.32 131.733 113.32 131.633 111.543 C131.555 109.012 131.536 106.478 131.566 103.945 C131.585 99.75 131.043 95.71 130.457 91.562 C129.606 84.98 128.939 78.413 130.52 71.875 C131.18 71.215 131.84 70.555 132.52 69.875 C131.86 69.545 131.2 69.215 130.52 68.875 C130.52 66.895 130.52 64.915 130.52 62.875 C129.53 62.545 128.54 62.215 127.52 61.875 C128.52 58.875 128.52 58.875 130.582 57.688 C131.221 57.419 131.861 57.151 132.52 56.875 C131.88 56.669 131.241 56.463 130.582 56.25 C128.52 54.875 128.52 54.875 127.77 51.75 C127.687 50.801 127.605 49.852 127.52 48.875 C125.17 51.225 124.461 53.17 123.242 56.258 C122.811 57.343 122.38 58.429 121.936 59.547 C121.489 60.686 121.042 61.826 120.582 63 C120.139 64.116 119.696 65.233 119.24 66.383 C116.385 73.599 113.544 80.813 111.055 88.164 C110.69 89.235 110.69 89.235 110.318 90.328 C109.825 91.782 109.339 93.238 108.857 94.695 C107.284 99.278 105.513 103.041 102.52 106.875 C101.86 106.875 101.2 106.875 100.52 106.875 C100.19 109.515 99.86 112.155 99.52 114.875 C98.035 115.37 98.035 115.37 96.52 115.875 C96.593 116.877 96.666 117.878 96.742 118.91 C96.489 123.419 95.088 126.448 92.957 130.312 C92.213 131.731 91.472 133.152 90.734 134.574 C90.36 135.291 89.986 136.009 89.601 136.748 C83.36 149.024 78.561 162.078 73.52 174.875 C70.156 175.035 70.156 175.035 66.52 174.875 C64.332 172.312 64.332 172.312 62.52 168.875 C61.88 167.803 61.241 166.73 60.582 165.625 C58.604 162.104 56.794 158.51 55.02 154.883 C53.863 152.565 52.676 150.277 51.457 147.992 C44.52 134.822 44.52 134.822 44.52 126.875 C43.902 126.786 43.285 126.697 42.649 126.606 C40.52 125.875 40.52 125.875 39.366 124.271 C39.061 123.582 38.756 122.893 38.441 122.184 C38.089 121.411 37.736 120.638 37.373 119.842 C37.009 119.007 36.645 118.172 36.27 117.312 C35.485 115.581 34.698 113.851 33.91 112.121 C33.515 111.246 33.12 110.37 32.713 109.468 C30.598 104.872 28.292 100.372 25.995 95.865 C24.656 93.221 23.459 90.692 22.52 87.875 C22.85 87.215 23.18 86.555 23.52 85.875 C22.977 83.64 22.977 83.64 22.082 81.25 C21.795 80.433 21.507 79.615 21.211 78.773 C20.983 78.147 20.755 77.52 20.52 76.875 C19.53 77.205 18.54 77.535 17.52 77.875 C14.028 71.017 10.712 64.179 8.082 56.938 C6.014 51.372 3.944 45.961 -0.48 41.875 C-0.408 42.677 -0.336 43.479 -0.262 44.305 C0.545 54.182 0.621 63.971 0.52 73.875 C-0.14 73.875 -0.8 73.875 -1.48 73.875 C-1.15 75.195 -0.82 76.515 -0.48 77.875 C-1.14 77.875 -1.8 77.875 -2.48 77.875 C-2.48 78.535 -2.48 79.195 -2.48 79.875 C-1.49 79.875 -0.5 79.875 0.52 79.875 C0.549 83.646 0.566 87.417 0.582 91.188 C0.59 92.24 0.599 93.293 0.607 94.377 C0.626 100.434 0.354 106.352 -0.26 112.376 C-0.569 115.877 -0.539 119.298 -0.48 122.812 C-0.419 128.693 -0.666 134.472 -1.262 140.324 C-1.534 142.902 -1.534 142.902 -1.387 145.602 C-1.418 146.352 -1.449 147.102 -1.48 147.875 C-3.48 149.562 -3.48 149.562 -5.48 150.875 C-5.48 151.535 -5.48 152.195 -5.48 152.875 C-4.49 152.875 -3.5 152.875 -2.48 152.875 C-2.15 155.515 -1.82 158.155 -1.48 160.875 C-2.45 161.329 -3.419 161.783 -4.418 162.25 C-7.551 163.533 -7.551 163.533 -8.48 165.875 C-5.84 166.535 -3.2 167.195 -0.48 167.875 C-0.79 168.947 -1.099 170.02 -1.418 171.125 C-2.479 174.578 -2.479 174.578 -2.808 177.003 C-3.48 178.875 -3.48 178.875 -5.155 179.88 C-5.862 180.11 -6.568 180.341 -7.297 180.578 C-8.061 180.836 -8.824 181.094 -9.611 181.359 C-10.414 181.612 -11.216 181.865 -12.043 182.125 C-13.252 182.527 -13.252 182.527 -14.486 182.938 C-16.48 183.598 -18.479 184.238 -20.48 184.875 C-20.81 183.555 -21.14 182.235 -21.48 180.875 C-20.523 180.078 -20.523 180.078 -19.547 179.266 C-18.721 178.559 -17.894 177.853 -17.043 177.125 C-16.219 176.429 -15.396 175.733 -14.547 175.016 C-12.468 172.862 -11.842 171.792 -11.48 168.875 C-13.46 167.555 -15.44 166.235 -17.48 164.875 C-17.162 163.922 -16.844 162.97 -16.516 161.988 C-15.2 157.376 -15.069 152.833 -14.918 148.062 C-14.845 146.285 -14.771 144.508 -14.695 142.73 C-14.66 141.889 -14.625 141.048 -14.589 140.181 C-14.114 130.111 -14.114 130.111 -12.969 126.069 C-12.422 123.61 -12.367 121.409 -12.383 118.891 C-12.386 117.956 -12.389 117.021 -12.393 116.059 C-12.401 115.091 -12.409 114.122 -12.418 113.125 C-12.422 112.141 -12.427 111.158 -12.432 110.145 C-12.443 107.721 -12.46 105.298 -12.48 102.875 C-11.49 102.38 -11.49 102.38 -10.48 101.875 C-10.666 100.988 -10.852 100.101 -11.043 99.188 C-11.466 95.985 -11.233 93.968 -10.48 90.875 C-10.48 89.885 -10.48 88.895 -10.48 87.875 C-8.995 86.885 -8.995 86.885 -7.48 85.875 C-8.8 85.215 -10.12 84.555 -11.48 83.875 C-11.15 80.575 -10.82 77.275 -10.48 73.875 C-11.14 73.545 -11.8 73.215 -12.48 72.875 C-12.51 69.771 -12.527 66.667 -12.543 63.562 C-12.551 62.681 -12.56 61.8 -12.568 60.893 C-12.572 60.045 -12.575 59.197 -12.578 58.324 C-12.583 57.544 -12.589 56.764 -12.594 55.96 C-12.48 53.875 -12.48 53.875 -11.48 50.875 C-11.799 48.805 -11.799 48.805 -12.41 46.539 C-13.803 40.101 -13.701 33.811 -13.605 27.25 C-13.596 26.055 -13.587 24.86 -13.578 23.629 C-13.555 20.711 -13.522 17.793 -13.48 14.875 C-14.47 14.545 -15.46 14.215 -16.48 13.875 C-15.637 8.794 -12.378 6.876 -8.48 3.875 C-7.449 3.071 -6.418 2.266 -5.355 1.438 C-2.48 -0.125 -2.48 -0.125 0 0 Z " fill="#9CAB81" transform="translate(936.48046875,119.125)"/>
<path d="M0 0 C0.398 1.845 0.398 1.845 0.805 3.727 C1.161 5.359 1.518 6.992 1.875 8.625 C2.136 9.837 2.136 9.837 2.402 11.074 C3.372 15.492 4.547 19.711 6 24 C6.312 27.25 6.312 27.25 6 30 C5.01 30.66 4.02 31.32 3 32 C3.928 32.412 4.856 32.825 5.812 33.25 C9.068 35.037 10.301 35.772 12 39 C12.34 40.473 12.65 41.953 12.938 43.438 C13.759 47.656 15.298 49.643 18 53 C18.883 55.527 19.583 58.075 20.289 60.656 C21.13 63.43 22.467 65.546 24 68 C26.266 73.191 28.498 78.537 30 84 C29.67 84.66 29.34 85.32 29 86 C29.66 86.33 30.32 86.66 31 87 C32.021 88.654 33.016 90.324 34 92 C35.207 93.485 35.207 93.485 36.438 95 C38.742 98.17 39.761 101.172 40.812 104.938 C42.946 112.434 46.334 118.966 49.9 125.852 C51.83 129.621 53.673 133.43 55.5 137.25 C55.85 137.965 56.201 138.68 56.562 139.417 C58.232 142.925 59 145.043 59 149 C59.639 149.309 60.279 149.619 60.938 149.938 C63 151 63 151 64 152 C64.125 154.5 64.125 154.5 64 157 C63.67 157.33 63.34 157.66 63 158 C63.743 158.454 64.485 158.908 65.25 159.375 C68.553 162.527 69.503 165.306 71.012 169.539 C71.921 171.803 72.875 173.354 74.375 175.25 C76 178 76 178 75.5 181.25 C73.8 184.367 73.206 184.746 70 186 C67.928 186.435 65.843 186.807 63.75 187.125 C62.672 187.293 61.595 187.46 60.484 187.633 C59.665 187.754 58.845 187.875 58 188 C54.855 180.764 52.109 173.602 50 166 C49.629 164.804 49.257 163.607 48.875 162.375 C47.881 158.542 47.34 154.945 47 151 C47.33 150.67 47.66 150.34 48 150 C47.237 149.794 46.474 149.587 45.688 149.375 C41.178 147.068 40.112 142.529 38.613 137.914 C38.174 136.486 37.741 135.056 37.312 133.625 C36.975 132.521 36.975 132.521 36.631 131.395 C36.083 129.598 35.541 127.799 35 126 C33.35 125.67 31.7 125.34 30 125 C29.34 126.98 28.68 128.96 28 131 C24.019 130.367 20.764 129.062 17.094 127.422 C9.674 124.518 3.348 124.642 -4.5 125.25 C-12.843 125.79 -20.836 126.06 -29.166 125.19 C-31.937 125.004 -34.381 125.179 -37.125 125.562 C-41 126 -41 126 -44 124 C-46.012 124.628 -48.011 125.301 -50 126 C-53.148 126.16 -53.148 126.16 -56.375 126.062 C-61.385 125.976 -66.055 126.224 -71 127 C-71.258 127.705 -71.516 128.41 -71.781 129.137 C-73.103 132.243 -74.697 134.96 -76.5 137.812 C-77.108 138.788 -77.717 139.764 -78.344 140.77 C-78.89 141.506 -79.437 142.242 -80 143 C-80.66 143 -81.32 143 -82 143 C-81.915 143.66 -81.83 144.32 -81.742 145 C-82.111 149.292 -84.001 152.31 -86.125 156 C-86.504 156.699 -86.883 157.397 -87.273 158.117 C-89.27 161.644 -91.118 164.306 -94.332 166.812 C-95.212 167.534 -96.093 168.256 -97 169 C-96.707 171.006 -96.374 173.007 -96 175 C-98.188 177.625 -98.188 177.625 -101 180 C-101.66 180.722 -102.32 181.444 -103 182.188 C-105.369 184.334 -106.854 185.341 -110 186 C-113.75 184.875 -113.75 184.875 -117 183 C-117.703 180.883 -117.703 180.883 -118 179 C-117.169 178.277 -117.169 178.277 -116.32 177.539 C-115.596 176.907 -114.871 176.276 -114.125 175.625 C-113.406 174.999 -112.686 174.372 -111.945 173.727 C-109.309 171.387 -108.065 170.165 -106.75 166.812 C-105.259 163.157 -103.128 160.668 -100.488 157.773 C-98.977 155.973 -97.873 154.186 -96.75 152.125 C-95 149 -95 149 -93 148 C-92.284 146.336 -91.574 144.67 -90.892 142.992 C-89.385 139.628 -87.346 136.627 -85.312 133.562 C-84.897 132.926 -84.481 132.29 -84.053 131.635 C-83.04 130.087 -82.021 128.543 -81 127 C-82.65 126.34 -84.3 125.68 -86 125 C-85.424 120.245 -83.449 117.03 -81 113 C-78.69 113.33 -76.38 113.66 -74 114 C-73.67 113.072 -73.34 112.144 -73 111.188 C-71.579 107.868 -69.757 105.236 -67.562 102.375 C-61.718 94.572 -57.16 86.007 -52.41 77.512 C-50.8 74.643 -49.16 71.793 -47.515 68.945 C-45.161 64.869 -42.853 60.805 -40.812 56.562 C-39.45 53.884 -38.311 52.042 -36.5 49.75 C-33.498 45.769 -32.291 41.311 -30.895 36.574 C-30 34 -30 34 -28 32 C-27.876 30.928 -27.753 29.855 -27.625 28.75 C-27 25 -27 25 -25 22.062 C-23.006 19.009 -22.808 18.329 -22.688 14.938 C-21.956 10.748 -21.827 10.375 -18.625 8.062 C-16.385 6.657 -14.54 5.847 -12 5 C-11.67 4.34 -11.34 3.68 -11 3 C-10.01 3 -9.02 3 -8 3 C-8 2.34 -8 1.68 -8 1 C-4.856 -0.909 -3.479 -1.045 0 0 Z M-15 28 C-15.389 28.73 -15.779 29.459 -16.18 30.211 C-18.957 35.394 -21.748 40.565 -24.621 45.695 C-25.067 46.491 -25.512 47.288 -25.971 48.108 C-26.852 49.679 -27.736 51.249 -28.623 52.818 C-30.321 55.847 -31.891 58.708 -33.105 61.969 C-33.401 62.639 -33.696 63.309 -34 64 C-35.485 64.495 -35.485 64.495 -37 65 C-37.33 65.99 -37.66 66.98 -38 68 C-40.062 69.188 -40.062 69.188 -42 70 C-41.34 70 -40.68 70 -40 70 C-41.217 72.569 -42.448 75.13 -43.688 77.688 C-44.027 78.409 -44.367 79.13 -44.717 79.873 C-46.933 84.409 -49.304 87.485 -53 91 C-53.716 92.855 -54.425 94.715 -55.043 96.605 C-56.728 100.821 -59.212 104.597 -61.574 108.461 C-63.163 110.805 -63.163 110.805 -63 113 C-61.298 113.186 -61.298 113.186 -59.562 113.375 C-58.387 113.581 -57.211 113.787 -56 114 C-55.67 114.66 -55.34 115.32 -55 116 C-53.973 115.977 -52.945 115.954 -51.887 115.93 C-35.501 115.672 -35.501 115.672 -28 118 C-27.01 118.99 -27.01 118.99 -26 120 C-23.616 119.686 -21.411 119.12 -19.106 118.445 C-16.824 117.963 -14.997 118.004 -12.676 118.191 C-11.397 118.28 -11.397 118.28 -10.092 118.369 C-9.175 118.433 -8.258 118.497 -7.312 118.562 C5.232 119.31 17.521 118.279 30 117 C28.849 112.489 27.537 108.838 25 104.938 C21.733 99.678 19.629 95.31 20 89 C18.35 88.67 16.7 88.34 15 88 C14.907 86.762 14.907 86.762 14.812 85.5 C14.071 82.305 13.448 80.932 11.688 78.312 C8.146 72.979 5 66.486 5 60 C4.01 60 3.02 60 2 60 C1.83 59.443 1.66 58.886 1.484 58.312 C-0.514 52.018 -3.017 46.277 -6.438 40.625 C-8.868 36.542 -10.906 32.263 -13 28 C-13.66 28 -14.32 28 -15 28 Z " fill="#9CAB81" transform="translate(826,119)"/>
<path d="M0 0 C0.398 1.845 0.398 1.845 0.805 3.727 C1.161 5.359 1.518 6.992 1.875 8.625 C2.136 9.837 2.136 9.837 2.402 11.074 C3.372 15.492 4.547 19.711 6 24 C6.312 27.25 6.312 27.25 6 30 C5.01 30.66 4.02 31.32 3 32 C3.928 32.412 4.856 32.825 5.812 33.25 C9.068 35.037 10.301 35.772 12 39 C12.34 40.473 12.65 41.953 12.938 43.438 C13.759 47.656 15.298 49.643 18 53 C18.883 55.527 19.583 58.075 20.289 60.656 C21.13 63.43 22.467 65.546 24 68 C26.266 73.191 28.498 78.537 30 84 C29.67 84.66 29.34 85.32 29 86 C29.66 86.33 30.32 86.66 31 87 C32.021 88.654 33.016 90.324 34 92 C35.207 93.485 35.207 93.485 36.438 95 C38.742 98.17 39.761 101.172 40.812 104.938 C42.946 112.434 46.334 118.966 49.9 125.852 C51.83 129.621 53.673 133.43 55.5 137.25 C55.85 137.965 56.201 138.68 56.562 139.417 C58.232 142.925 59 145.043 59 149 C59.639 149.309 60.279 149.619 60.938 149.938 C63 151 63 151 64 152 C64.125 154.5 64.125 154.5 64 157 C63.67 157.33 63.34 157.66 63 158 C63.743 158.454 64.485 158.908 65.25 159.375 C68.553 162.527 69.503 165.306 71.012 169.539 C71.921 171.803 72.875 173.354 74.375 175.25 C76 178 76 178 75.5 181.25 C73.8 184.367 73.206 184.746 70 186 C67.928 186.435 65.843 186.807 63.75 187.125 C62.672 187.293 61.595 187.46 60.484 187.633 C59.665 187.754 58.845 187.875 58 188 C54.855 180.764 52.109 173.602 50 166 C49.629 164.804 49.257 163.607 48.875 162.375 C47.881 158.542 47.34 154.945 47 151 C47.33 150.67 47.66 150.34 48 150 C47.237 149.794 46.474 149.587 45.688 149.375 C41.178 147.068 40.112 142.529 38.613 137.914 C38.174 136.486 37.741 135.056 37.312 133.625 C36.975 132.521 36.975 132.521 36.631 131.395 C36.083 129.598 35.541 127.799 35 126 C33.35 125.67 31.7 125.34 30 125 C29.34 126.98 28.68 128.96 28 131 C24.019 130.367 20.764 129.062 17.094 127.422 C9.674 124.518 3.348 124.642 -4.5 125.25 C-12.843 125.79 -20.836 126.06 -29.166 125.19 C-31.937 125.004 -34.381 125.179 -37.125 125.562 C-41 126 -41 126 -44 124 C-46.012 124.628 -48.011 125.301 -50 126 C-53.148 126.16 -53.148 126.16 -56.375 126.062 C-61.385 125.976 -66.055 126.224 -71 127 C-71.258 127.705 -71.516 128.41 -71.781 129.137 C-73.103 132.243 -74.697 134.96 -76.5 137.812 C-77.108 138.788 -77.717 139.764 -78.344 140.77 C-78.89 141.506 -79.437 142.242 -80 143 C-80.66 143 -81.32 143 -82 143 C-81.915 143.66 -81.83 144.32 -81.742 145 C-82.111 149.292 -84.001 152.31 -86.125 156 C-86.504 156.699 -86.883 157.397 -87.273 158.117 C-89.27 161.644 -91.118 164.306 -94.332 166.812 C-95.212 167.534 -96.093 168.256 -97 169 C-96.707 171.006 -96.374 173.007 -96 175 C-98.188 177.625 -98.188 177.625 -101 180 C-101.66 180.722 -102.32 181.444 -103 182.188 C-105.369 184.334 -106.854 185.341 -110 186 C-113.75 184.875 -113.75 184.875 -117 183 C-117.703 180.883 -117.703 180.883 -118 179 C-117.169 178.277 -117.169 178.277 -116.32 177.539 C-115.596 176.907 -114.871 176.276 -114.125 175.625 C-113.406 174.999 -112.686 174.372 -111.945 173.727 C-109.309 171.387 -108.065 170.165 -106.75 166.812 C-105.259 163.157 -103.128 160.668 -100.488 157.773 C-98.977 155.973 -97.873 154.186 -96.75 152.125 C-95 149 -95 149 -93 148 C-92.284 146.336 -91.574 144.67 -90.892 142.992 C-89.385 139.628 -87.346 136.627 -85.312 133.562 C-84.897 132.926 -84.481 132.29 -84.053 131.635 C-83.04 130.087 -82.021 128.543 -81 127 C-82.65 126.34 -84.3 125.68 -86 125 C-85.424 120.245 -83.449 117.03 -81 113 C-78.69 113.33 -76.38 113.66 -74 114 C-73.67 113.072 -73.34 112.144 -73 111.188 C-71.579 107.868 -69.757 105.236 -67.562 102.375 C-61.718 94.572 -57.16 86.007 -52.41 77.512 C-50.8 74.643 -49.16 71.793 -47.515 68.945 C-45.161 64.869 -42.853 60.805 -40.812 56.562 C-39.45 53.884 -38.311 52.042 -36.5 49.75 C-33.498 45.769 -32.291 41.311 -30.895 36.574 C-30 34 -30 34 -28 32 C-27.876 30.928 -27.752 29.855 -27.625 28.75 C-27 25 -27 25 -25 22.062 C-23.006 19.009 -22.808 18.329 -22.688 14.938 C-21.956 10.748 -21.827 10.375 -18.625 8.062 C-16.385 6.657 -14.54 5.847 -12 5 C-11.67 4.34 -11.34 3.68 -11 3 C-10.01 3 -9.02 3 -8 3 C-8 2.34 -8 1.68 -8 1 C-4.856 -0.909 -3.479 -1.045 0 0 Z M-15 28 C-15.389 28.73 -15.779 29.459 -16.18 30.211 C-18.957 35.394 -21.748 40.565 -24.621 45.695 C-25.067 46.491 -25.512 47.288 -25.971 48.108 C-26.852 49.679 -27.736 51.249 -28.623 52.818 C-30.321 55.847 -31.891 58.708 -33.105 61.969 C-33.401 62.639 -33.696 63.309 -34 64 C-35.485 64.495 -35.485 64.495 -37 65 C-37.33 65.99 -37.66 66.98 -38 68 C-40.062 69.188 -40.062 69.188 -42 70 C-41.34 70 -40.68 70 -40 70 C-41.217 72.569 -42.448 75.13 -43.688 77.688 C-44.027 78.409 -44.367 79.13 -44.717 79.873 C-46.933 84.409 -49.304 87.485 -53 91 C-53.716 92.855 -54.425 94.715 -55.043 96.605 C-56.728 100.821 -59.212 104.597 -61.574 108.461 C-63.163 110.805 -63.163 110.805 -63 113 C-61.298 113.186 -61.298 113.186 -59.562 113.375 C-58.387 113.581 -57.211 113.787 -56 114 C-55.67 114.66 -55.34 115.32 -55 116 C-53.973 115.977 -52.945 115.954 -51.887 115.93 C-35.501 115.672 -35.501 115.672 -28 118 C-27.01 118.99 -27.01 118.99 -26 120 C-23.616 119.686 -21.411 119.12 -19.106 118.445 C-16.824 117.963 -14.997 118.004 -12.676 118.191 C-11.397 118.28 -11.397 118.28 -10.092 118.369 C-9.175 118.433 -8.258 118.497 -7.312 118.562 C5.232 119.31 17.521 118.279 30 117 C28.849 112.489 27.537 108.838 25 104.938 C21.733 99.678 19.629 95.31 20 89 C18.35 88.67 16.7 88.34 15 88 C14.907 86.762 14.907 86.762 14.812 85.5 C14.071 82.305 13.448 80.932 11.688 78.312 C8.146 72.979 5 66.486 5 60 C4.01 60 3.02 60 2 60 C1.83 59.443 1.66 58.886 1.484 58.312 C-0.514 52.018 -3.017 46.277 -6.438 40.625 C-8.868 36.542 -10.906 32.263 -13 28 C-13.66 28 -14.32 28 -15 28 Z " fill="#9CAB81" transform="translate(486,119)"/>
<path d="M0 0 C1.125 7.625 1.125 7.625 0 11 C-0.067 12.394 -0.085 13.792 -0.062 15.188 C-0.042 16.446 -0.021 17.704 0 19 C-1.32 19 -2.64 19 -4 19 C-4.33 20.65 -4.66 22.3 -5 24 C-3.68 24 -2.36 24 -1 24 C-0.34 25.65 0.32 27.3 1 29 C0.381 29.681 -0.237 30.361 -0.875 31.062 C-3.242 34.335 -3.945 37.132 -5 41 C-5.557 41.681 -6.114 42.361 -6.688 43.062 C-8.293 44.977 -8.293 44.977 -7.688 47.625 C-7.461 48.739 -7.234 49.852 -7 51 C-6.9 54.335 -6.941 57.664 -7 61 C-5.02 61.66 -3.04 62.32 -1 63 C-0.973 65.292 -0.954 67.583 -0.938 69.875 C-0.926 71.151 -0.914 72.427 -0.902 73.742 C-1 77 -1 77 -2 79 C-1.505 79.99 -1.505 79.99 -1 81 C-0.789 85.426 -0.814 89.855 -0.815 94.286 C-0.813 96.491 -0.794 98.697 -0.775 100.902 C-0.772 102.299 -0.77 103.697 -0.77 105.094 C-0.765 106.369 -0.761 107.645 -0.757 108.959 C-1 112 -1 112 -3 114 C-2.515 114.951 -2.515 114.951 -2.02 115.922 C-0.641 120.083 -0.661 123.894 -0.688 128.25 C-0.689 129.123 -0.69 129.996 -0.691 130.896 C-0.815 139.464 -2.182 147.646 -4 156 C-3.34 156 -2.68 156 -2 156 C-1.146 161.658 -0.987 166.96 -1.258 172.68 C-1.13 173.828 -1.13 173.828 -1 175 C2.098 177.065 3.686 177.447 7.289 178 C8.313 178.165 9.336 178.33 10.391 178.5 C12.555 178.835 14.719 179.168 16.883 179.5 C17.904 179.665 18.925 179.83 19.977 180 C20.916 180.144 21.855 180.289 22.823 180.438 C23.541 180.623 24.26 180.809 25 181 C25.33 181.66 25.66 182.32 26 183 C27.021 182.783 27.021 182.783 28.062 182.562 C36.995 180.852 36.995 180.852 41.133 181.461 C57.077 183.683 73.219 181.444 89 179 C90.485 180.98 90.485 180.98 92 183 C92.186 181.639 92.186 181.639 92.375 180.25 C94.578 175.845 97.106 175.289 101.59 173.664 C104 173 104 173 107 173 C107.496 178.508 105.263 180.877 101.871 184.965 C99.718 187.307 98.04 188.96 95 190 C92.375 189.25 92.375 189.25 90 188 C86.271 186.757 85.434 187.454 81.871 188.914 C74.599 191.457 67.878 191.542 60.27 191.412 C58.041 191.375 55.813 191.371 53.584 191.371 C40.421 191.281 40.421 191.281 34 187 C32.928 187.474 31.855 187.949 30.75 188.438 C23.756 191.4 14.144 190.093 7 188 C7 188.66 7 189.32 7 190 C5.928 189.629 4.855 189.257 3.75 188.875 C-0.42 187.902 -0.544 188.115 -4 190 C-5.976 190.032 -7.954 190.058 -9.93 189.996 C-12.243 189.939 -12.243 189.939 -15.438 190.625 C-19.956 191.101 -23.658 190.191 -28 189 C-26.234 185.164 -26.234 185.164 -24.125 183.688 C-21.72 181.778 -20.644 179.732 -19.215 177.051 C-16.87 173.092 -13.886 169.575 -11 166 C-13.31 165.67 -15.62 165.34 -18 165 C-16.377 163.291 -14.707 161.626 -13 160 C-12.34 160 -11.68 160 -11 160 C-11.529 159.608 -12.057 159.216 -12.602 158.812 C-15.03 156.637 -16.511 154.922 -18 152 C-18.12 149.047 -18.068 146.634 -17.688 143.75 C-17.599 143.053 -17.51 142.355 -17.418 141.637 C-16.67 137.228 -15.494 134.795 -12 132 C-12.33 131.01 -12.66 130.02 -13 129 C-15.015 128.267 -15.015 128.267 -17 128 C-17.029 124.417 -17.047 120.833 -17.062 117.25 C-17.071 116.234 -17.079 115.218 -17.088 114.172 C-17.091 113.192 -17.094 112.213 -17.098 111.203 C-17.103 110.302 -17.108 109.402 -17.114 108.474 C-17.008 106.166 -16.651 104.209 -16 102 C-15.34 102 -14.68 102 -14 102 C-14 100.68 -14 99.36 -14 98 C-14.66 98 -15.32 98 -16 98 C-16.054 95 -16.094 92.001 -16.125 89 C-16.142 88.161 -16.159 87.322 -16.176 86.457 C-16.219 80.934 -15.506 76.311 -14 71 C-14 70.34 -14 69.68 -14 69 C-14.99 69 -15.98 69 -17 69 C-16.995 68.22 -16.99 67.44 -16.984 66.636 C-16.963 63.028 -16.95 59.42 -16.938 55.812 C-16.929 54.586 -16.921 53.359 -16.912 52.096 C-16.883 41.233 -17.282 30.492 -19.375 19.812 C-19.61 18.561 -19.844 17.309 -20.086 16.02 C-20.737 12.717 -20.737 12.717 -24 11 C-24 9.68 -24 8.36 -24 7 C-23.215 6.674 -22.43 6.348 -21.621 6.012 C-20.571 5.575 -19.52 5.138 -18.438 4.688 C-16.794 4.009 -16.794 4.009 -15.117 3.316 C-12.729 2.308 -10.4 1.242 -8.062 0.125 C-4.792 -1.076 -3.264 -1.088 0 0 Z " fill="#9CAB81" transform="translate(602,116)"/>
<path d="M0 0 C5.085 0.715 9.6 2.747 14.312 4.688 C20.082 7.04 25.853 9.34 31.715 11.454 C37.975 13.711 43.489 16.218 49 20 C49.99 20.33 50.98 20.66 52 21 C52.055 23.146 52.093 25.291 52.125 27.438 C52.148 28.632 52.171 29.827 52.195 31.059 C51.487 45.36 44.732 59.421 34.781 69.586 C30.773 73.065 26.445 75.885 22.008 78.785 C17.768 81.907 14.852 85.613 12 90 C6.738 88.588 3.278 86.251 -1 83 C2.435 78.165 2.435 78.165 5.562 77.25 C8.106 76.266 8.106 76.266 8.809 74.199 C9.283 72.649 9.737 71.092 10.176 69.531 C11.528 65.378 13.766 61.734 16 58 C18.97 58 21.94 58 25 58 C24.969 55.584 24.969 55.584 24 53 C21.033 51.141 21.033 51.141 18 50 C18.012 49.368 18.023 48.737 18.035 48.086 C18.103 41.332 17.724 34.696 17.121 27.969 C17 25 17 25 18 22 C17.141 21.798 16.283 21.595 15.398 21.387 C11.082 19.625 8.726 17.209 5.625 13.812 C5.08 13.26 4.534 12.708 3.973 12.139 C1.005 8.936 0.052 7.583 -0.352 3.074 C-0.236 2.06 -0.12 1.045 0 0 Z " fill="#9CAB81" transform="translate(225,200)"/>
<path d="M0 0 C1.078 0.018 2.155 0.036 3.266 0.055 C4.495 0.089 4.495 0.089 5.75 0.125 C7.82 3.859 7.82 3.859 7.188 6.25 C4.006 10.4 -1.948 10.82 -6.812 11.938 C-13.985 13.67 -20.523 16.074 -27.25 19.125 C-28.76 19.779 -30.27 20.432 -31.781 21.082 C-33.396 21.783 -35.011 22.485 -36.625 23.188 C-37.768 23.68 -37.768 23.68 -38.933 24.183 C-43.358 26.135 -47.282 28.323 -51.25 31.125 C-52.364 31.826 -53.477 32.528 -54.625 33.25 C-60.618 37.601 -66.044 43.589 -67.688 50.938 C-67.889 52.331 -68.079 53.727 -68.25 55.125 C-68.498 55.95 -68.745 56.775 -69 57.625 C-69.62 63.829 -67.789 68.861 -64.188 73.875 C-58.846 80.212 -52.631 83.192 -44.578 84.656 C-41.998 85.176 -39.566 85.94 -37.062 86.75 C-33.341 87.905 -30.18 88.435 -26.25 88.125 C-26.58 87.465 -26.91 86.805 -27.25 86.125 C-25.6 83.815 -23.95 81.505 -22.25 79.125 C-19.628 80.174 -18.456 80.774 -17 83.25 C-16.752 83.869 -16.505 84.488 -16.25 85.125 C-14.765 84.135 -14.765 84.135 -13.25 83.125 C-9.985 84.929 -8.361 85.959 -6.25 89.125 C-3.184 89.858 -3.184 89.858 -0.25 90.125 C-0.801 94.074 -1.639 97.474 -3.25 101.125 C-2.487 101.702 -1.724 102.28 -0.938 102.875 C1.454 104.877 3.227 106.417 4.75 109.125 C4.438 111.375 4.438 111.375 3.75 113.125 C1.44 113.125 -0.87 113.125 -3.25 113.125 C-3.25 112.465 -3.25 111.805 -3.25 111.125 C-3.991 111.014 -4.732 110.903 -5.496 110.789 C-8.371 110.096 -9.909 109.18 -12.312 107.5 C-18.888 103.389 -26.098 101.245 -33.398 98.781 C-39.145 96.841 -44.721 94.618 -50.25 92.125 C-51.288 91.676 -52.325 91.228 -53.395 90.766 C-60.316 87.591 -64.738 84.238 -69.25 78.125 C-69.972 77.259 -70.694 76.392 -71.438 75.5 C-75.469 70.218 -77.967 66.059 -78.688 59.375 C-78.765 58.668 -78.843 57.962 -78.923 57.234 C-79.824 47.101 -76.658 40.682 -70.527 32.777 C-58.84 19.165 -44.73 9.741 -27.25 6.125 C-26.234 5.786 -25.218 5.447 -24.172 5.098 C-20.437 3.854 -16.715 3.296 -12.836 2.688 C-10.277 2.257 -10.277 2.257 -8.305 1.07 C-5.471 -0.233 -3.099 -0.067 0 0 Z " fill="#FCFCFB" transform="translate(280.25,109.875)"/>
<path d="M0 0 C0.66 0.33 1.32 0.66 2 1 C2 3.31 2 5.62 2 8 C1.092 8.371 0.185 8.743 -0.75 9.125 C-4.457 11.264 -5.771 13.418 -8 17 C-8.66 17 -9.32 17 -10 17 C-10.266 17.572 -10.531 18.145 -10.805 18.734 C-12.057 21.108 -13.494 23.122 -15.125 25.25 C-15.664 25.956 -16.203 26.663 -16.758 27.391 C-17.168 27.922 -17.578 28.453 -18 29 C-17.189 28.567 -16.378 28.134 -15.543 27.688 C-8.371 24.081 -2.116 21.462 6 23 C8 25 8 25 8.344 27.324 C7.904 30.747 6.71 32.182 4.5 34.812 C3.769 35.683 3.038 36.553 2.285 37.449 C-0.4 40.447 -3.197 43.286 -6.086 46.086 C-7.902 47.902 -9.542 49.78 -11.188 51.75 C-15.773 57.074 -21.041 61.687 -26.239 66.396 C-28.033 68.03 -29.813 69.678 -31.59 71.332 C-32.172 71.873 -32.754 72.414 -33.353 72.972 C-34.465 74.006 -35.576 75.042 -36.686 76.079 C-39.353 78.552 -42.036 80.889 -45 83 C-46.32 82.34 -47.64 81.68 -49 81 C-48.979 80.113 -48.959 79.226 -48.938 78.312 C-48.869 75.082 -48.869 75.082 -49.688 72.375 C-50 70 -50 70 -48.562 67.688 C-48.047 67.131 -47.531 66.574 -47 66 C-48.32 66.99 -49.64 67.98 -51 69 C-53.873 66.578 -54.708 64.403 -55.688 60.812 C-55.939 59.911 -56.19 59.01 -56.449 58.082 C-56.631 57.395 -56.813 56.708 -57 56 C-56.599 55.622 -56.198 55.245 -55.785 54.855 C-52.098 51.285 -48.775 47.568 -45.562 43.562 C-42.118 39.274 -38.509 35.355 -34.531 31.559 C-32.902 30.06 -32.902 30.06 -32 28 C-31.34 28 -30.68 28 -30 28 C-29.665 27.184 -29.665 27.184 -29.324 26.352 C-27.588 23.269 -25.247 20.906 -22.812 18.375 C-18.537 13.85 -14.874 9.239 -11.535 3.961 C-8.346 -0.112 -4.969 -0.324 0 0 Z M-42 61 C-43.637 62.96 -43.637 62.96 -45 65 C-41.878 63.691 -41.878 63.691 -40 61 C-40.66 61 -41.32 61 -42 61 Z " fill="#FEFEFE" transform="translate(1300,125)"/>
<path d="M0 0 C3 1 3 1 4.688 3.25 C6.118 6.247 6.363 7.732 6 11 C4.655 12.805 4.655 12.805 2.789 14.445 C2.121 15.047 1.454 15.649 0.766 16.27 C-0.294 17.188 -0.294 17.188 -1.375 18.125 C-2.76 19.354 -4.143 20.586 -5.523 21.82 C-6.45 22.629 -6.45 22.629 -7.396 23.454 C-9.227 25.108 -9.227 25.108 -11 28 C-10.328 27.326 -10.328 27.326 -9.642 26.639 C-7.589 24.598 -5.514 22.58 -3.438 20.562 C-2.733 19.855 -2.029 19.148 -1.303 18.42 C3.086 14.193 5.818 12.057 12 12 C12.056 12.87 12.056 12.87 12.113 13.758 C12.454 17.806 12.816 20.639 14.688 24.312 C15.121 25.199 15.554 26.086 16 27 C14.873 30.24 13.403 31.713 10.516 33.473 C9.827 33.897 9.139 34.322 8.43 34.76 C7.71 35.19 6.991 35.62 6.25 36.062 C5.194 36.713 5.194 36.713 4.117 37.377 C2.093 38.613 0.049 39.807 -2 41 C-2.969 41.603 -3.939 42.207 -4.938 42.828 C-9.187 44.454 -12.777 44.095 -17.25 43.688 C-18.065 43.626 -18.879 43.565 -19.719 43.502 C-21.813 43.344 -23.907 43.173 -26 43 C-28.324 42.815 -28.324 42.815 -31 45 C-33.188 44.75 -33.188 44.75 -36 44 C-37.437 43.645 -38.875 43.291 -40.312 42.938 C-41.529 42.628 -42.746 42.319 -44 42 C-42.649 38.951 -41.174 36.969 -38.727 34.715 C-38.072 34.107 -37.418 33.499 -36.744 32.873 C-36.045 32.234 -35.346 31.596 -34.625 30.938 C-33.549 29.943 -33.549 29.943 -32.451 28.928 C-30.306 26.946 -28.153 24.973 -26 23 C-24.851 21.939 -23.703 20.878 -22.555 19.816 C-17.678 15.314 -12.777 10.838 -7.746 6.508 C-6.578 5.499 -5.424 4.472 -4.285 3.43 C-2.688 2 -2.688 2 0 0 Z " fill="#FEFEFE" transform="translate(1231,194)"/>
<path d="M0 0 C3.308 1.786 5.668 3.65 8.25 6.375 C14.879 12.703 21.954 15.884 31 17 C31 17.99 31 18.98 31 20 C35.982 21.916 40.727 22.555 46 23 C46 24.32 46 25.64 46 27 C31.13 27.498 19.325 25.299 6.355 17.387 C4.019 15.856 4.019 15.856 1.125 15.312 C-3.388 13.417 -6.458 10.173 -9 6 C-9.195 3.238 -9.195 3.238 -9 1 C-5.89 -0.555 -3.437 -0.286 0 0 Z M-8 10 C-6.35 11.32 -4.7 12.64 -3 14 C-4.938 13.688 -4.938 13.688 -7 13 C-7.33 12.01 -7.66 11.02 -8 10 Z " fill="#FDFDFC" transform="translate(214,274)"/>
<path d="M0 0 C3.006 1.002 4.062 1.6 6 4 C6 4.99 6 5.98 6 7 C6.724 7.121 7.449 7.242 8.195 7.367 C12.415 8.099 16.437 8.809 20.5 10.188 C23.086 11.301 23.086 11.301 26 10 C28.742 11.363 28.742 11.363 31.875 13.312 C35.52 15.564 38.968 17.535 43 19 C43 19.99 43 20.98 43 22 C35.074 21.864 27.976 21.005 20.438 18.625 C19.772 18.416 19.106 18.207 18.42 17.991 C14.652 16.738 11.191 15.389 8 13 C8 12.01 8 11.02 8 10 C7.295 9.734 6.59 9.469 5.863 9.195 C2.844 7.935 0.048 6.46 -2.812 4.875 C-3.788 4.336 -4.764 3.797 -5.77 3.242 C-6.506 2.832 -7.242 2.422 -8 2 C-4.377 0.792 -3.359 1.457 0 3 C0 2.01 0 1.02 0 0 Z " fill="#FAFBF9" transform="translate(210,293)"/>
<path d="M0 0 C2.172 0.023 2.172 0.023 4.75 0.375 C8.538 0.84 12.177 1.093 16 1 C18.428 1 20.808 1.081 23.23 1.219 C24.033 1.264 24.835 1.309 25.662 1.355 C26.495 1.403 27.329 1.451 28.188 1.5 C29.455 1.572 29.455 1.572 30.748 1.645 C32.832 1.762 34.916 1.881 37 2 C31.896 7.234 27.751 11.192 20.25 11.375 C16.814 11.315 16.021 11.014 13 9 C12.67 8.01 12.34 7.02 12 6 C11.435 6.325 10.871 6.65 10.289 6.984 C7.786 8.095 6.097 8.268 3.375 8.25 C2.599 8.255 1.823 8.26 1.023 8.266 C-1 8 -1 8 -3 6 C-2.633 3.065 -2.136 2.136 0 0 Z " fill="#FDFDFC" transform="translate(1178,242)"/>
<path d="M0 0 C0.66 0.33 1.32 0.66 2 1 C1.385 1.592 0.77 2.183 0.137 2.793 C-0.672 3.583 -1.48 4.373 -2.312 5.188 C-3.113 5.965 -3.914 6.742 -4.738 7.543 C-6.911 9.903 -8.461 12.196 -10 15 C-8.35 15.33 -6.7 15.66 -5 16 C-5 19.3 -5 22.6 -5 26 C-5.66 26 -6.32 26 -7 26 C-7 27.65 -7 29.3 -7 31 C-11.875 28.25 -11.875 28.25 -13 26 C-13.488 20.654 -13.756 15.71 -11.562 10.75 C-7.953 6.876 -4.048 3.408 0 0 Z " fill="#F4F6F2" transform="translate(236,142)"/>
<path d="M0 0 C-1.419 3.39 -1.83 3.913 -5.312 5.688 C-8.251 6.734 -10.928 7.535 -14 8 C-17 4.25 -17 4.25 -17 2 C-11.216 -0.012 -6.098 -0.221 0 0 Z " fill="#FEFEFE" transform="translate(1272,207)"/>
<path d="M0 0 C2.31 0 4.62 0 7 0 C6.67 0.99 6.34 1.98 6 3 C4.02 2.34 2.04 1.68 0 1 C0 0.67 0 0.34 0 0 Z " fill="#A8B590" transform="translate(262,205)"/>
</svg>